<svg xmlns="http://www.w3.org/2000/svg" width="320" height="80" viewBox="0 0 320 80">
  <!-- Logo Container with all text converted to paths -->
  <g id="os-trusttech-logo-paths">
    <!-- OS Square -->
    <rect x="10" y="10" width="60" height="60" rx="12" fill="#f4f4f5" opacity="0.9" />
    
    <!-- OS Text as paths -->
    <path d="M29.31 40.88c0 6.97-5.28 11.52-11.71 11.52-6.43 0-11.71-4.55-11.71-11.52 0-6.94 5.28-11.46 11.71-11.46 6.43 0 11.71 4.51 11.71 11.46zm-5.38 0c0-4.13-2.64-6.85-6.34-6.85-3.7 0-6.34 2.72-6.34 6.85 0 4.16 2.64 6.91 6.34 6.91 3.7 0 6.34-2.75 6.34-6.91z" fill="#4f46e5"/>
    <path d="M54.3 33.44c-1.06-2.24-3.55-4.03-6.78-4.03-6.34 0-11.04 4.99-11.04 11.49 0 6.53 4.7 11.49 11.04 11.49 3.23 0 5.73-1.76 6.78-3.94v3.52h5.02V29.84H54.3v3.6zm-6.14 14.34c-3.84 0-6.4-2.78-6.4-6.88 0-4.1 2.56-6.88 6.4-6.88 3.81 0 6.4 2.78 6.4 6.88 0 4.1-2.59 6.88-6.4 6.88z" fill="#4f46e5"/>
    
    <!-- TrustTech Text as paths -->
    <path d="M114.97 29.84h5.02v3.52c1.06-2.18 3.55-3.94 6.78-3.94 6.34 0 11.04 4.96 11.04 11.49 0 6.5-4.7 11.49-11.04 11.49-3.23 0-5.73-1.79-6.78-4.03v15.07h-5.02V29.84zm11.17 17.94c3.81 0 6.4-2.78 6.4-6.88 0-4.1-2.59-6.88-6.4-6.88-3.84 0-6.4 2.78-6.4 6.88 0 4.1 2.56 6.88 6.4 6.88z" fill="#18181b"/>
    <path d="M141.74 39.2v-9.36h-3.01v-0.96h3.01v-4.8h1.06v4.8h5.09v0.96h-5.09v9.36c0 3.71 1.95 5.47 4.83 5.47 1.44 0 2.85-0.45 3.87-1.25l0.51 0.8c-1.18 0.93-2.75 1.41-4.45 1.41-3.58 0-5.82-2.24-5.82-6.43z" fill="#18181b"/>
    <path d="M168.19 52c-6.5 0-11.52-4.99-11.52-11.52 0-6.5 5.02-11.52 11.52-11.52 6.5 0 11.52 5.02 11.52 11.52 0 6.53-5.02 11.52-11.52 11.52zm0-22.08c-5.82 0-10.46 4.48-10.46 10.56 0 6.08 4.64 10.56 10.46 10.56 5.79 0 10.43-4.48 10.43-10.56 0-6.08-4.64-10.56-10.43-10.56z" fill="#18181b"/>
    <path d="M185.41 29.84h1.06v7.94c0.93-4.96 4.42-8.32 9.7-8.32v1.06c-5.7 0-9.7 4.13-9.7 10.75v10.14h-1.06V29.84z" fill="#18181b"/>
    <path d="M201.6 51.42h-1.06V29.84h1.06v21.58z" fill="#18181b"/>
    <path d="M206.78 29.84h1.06v21.58h-1.06V29.84zm0.53-4.83c-0.61 0-1.09-0.48-1.09-1.09 0-0.61 0.48-1.09 1.09-1.09 0.61 0 1.09 0.48 1.09 1.09 0 0.61-0.48 1.09-1.09 1.09z" fill="#18181b"/>
    <path d="M215.94 38.69h14.05v1.02h-14.05v-1.02z" fill="#18181b"/>
    <path d="M234.75 51.42h-1.06V29.84h1.06v8.16c1.06-5.02 5.09-8.58 10.34-8.58 5.79 0 9.38 3.49 9.38 9.7v12.29h-1.06V39.17c0-5.63-3.17-8.8-8.64-8.8-5.73 0-10.02 4.16-10.02 10.94v10.11z" fill="#18181b"/>
    <path d="M260.06 51.42h-1.06V18.62h1.06v32.8z" fill="#18181b"/>
    
    <!-- Decorative Tech Elements -->
    <g stroke="#18181b" stroke-width="2.5">
      <!-- Connection Lines -->
      <path d="M75 40 L95 40" />
      <path d="M95 40 L105 30" />
      <path d="M95 40 L105 50" />
      
      <!-- Circuit Points -->
      <circle cx="105" cy="30" r="3" fill="#18181b" />
      <circle cx="105" cy="50" r="3" fill="#18181b" />
      
      <!-- Additional Decorative Elements -->
      <path d="M105 30 L115 30" />
      <path d="M105 50 L115 50" />
      <circle cx="115" cy="30" r="3" fill="#18181b" />
      <circle cx="115" cy="50" r="3" fill="#18181b" />
    </g>
  </g>
</svg> 